<?xml version="1.0" standalone="no"?><!DOCTYPE svg PUBLIC "-//W3C//DTD SVG 1.1//EN" "http://www.w3.org/Graphics/SVG/1.1/DTD/svg11.dtd"><svg t="1564127164515" class="icon" viewBox="0 0 1450 1024" version="1.1" xmlns="http://www.w3.org/2000/svg" p-id="4257" xmlns:xlink="http://www.w3.org/1999/xlink" width="283.203125" height="200"><defs><style type="text/css"></style></defs><path d="M720.894799 993.024052c-157.013072 0-307.967487-46.591922-437.332605-134.826442A777.385371 777.385371 0 0 1 2.815995 511.147521a39.8506 39.8506 0 0 1 0-29.354617 773.972043 773.972043 0 0 1 280.746199-346.964755A771.412048 771.412048 0 0 1 720.894799 0.001707c157.098405 0 308.05282 46.677256 437.332604 134.911775a777.385371 777.385371 0 0 1 280.831532 346.964755 39.8506 39.8506 0 0 1 0 29.354618 773.972043 773.972043 0 0 1-280.746199 346.879421 772.00938 772.00938 0 0 1-437.417937 134.997109zM80.895865 496.640879a696.06284 696.06284 0 0 0 639.998934 418.985968 696.318839 696.318839 0 0 0 639.998933-418.985968 696.06284 696.06284 0 0 0-639.998933-418.985968 696.318839 696.318839 0 0 0-639.998934 418.985968z" fill="#666666" p-id="4258"></path><path d="M713.214811 744.789799c-141.055765 0-255.999573-114.943808-255.999573-255.999574s114.943808-255.999573 255.999573-255.999573 255.999573 114.943808 255.999574 255.999573-114.943808 255.999573-255.999574 255.999574z m0-434.345943c-98.389169 0-178.346369 79.9572-178.346369 178.346369 0 98.389169 79.9572 178.346369 178.346369 178.34637 98.389169 0 178.346369-79.9572 178.34637-178.34637 0-98.389169-79.9572-178.346369-178.34637-178.346369z" fill="#666666" p-id="4259"></path></svg>