<?xml version="1.0" standalone="no"?><!DOCTYPE svg PUBLIC "-//W3C//DTD SVG 1.1//EN" "http://www.w3.org/Graphics/SVG/1.1/DTD/svg11.dtd"><svg t="1564108695273" class="icon" viewBox="0 0 1024 1024" version="1.1" xmlns="http://www.w3.org/2000/svg" p-id="3923" xmlns:xlink="http://www.w3.org/1999/xlink" width="200" height="200"><defs><style type="text/css"></style></defs><path d="M460.576 12.416S78.912 63.136 13.536 463.36c0 0 182.08 182.08 463.968 237.344 0-1.12-0.576-2.816-0.576-4.48a30.08 30.08 0 0 1 29.888-29.888 30.08 30.08 0 0 1 29.888 29.856c0 5.088-1.152 9.6-3.392 13.536 94.144 11.84 197.888 9.024 308.352-19.168 0.576 0.576-358.528-187.712-381.088-678.176zM296.544 303.872a30.08 30.08 0 0 1-29.888-29.888 30.08 30.08 0 0 1 29.888-29.888 30.08 30.08 0 0 1 29.856 29.888c0 16.32-12.96 29.888-29.856 29.888z" fill="#D5E9FF" p-id="3924"></path><path d="M507.36 0C227.2 0 0 227.2 0 507.36c0 280.192 227.2 507.392 507.36 507.392 280.192 0 507.392-227.2 507.392-507.392C1014.752 227.2 787.552 0 507.36 0z m157.312 62.592c38.88 12.96 72.704 29.312 102.016 49.6l1.152 0.544v18.048c0 50.176-4.512 97.536-14.08 143.776l-0.576 1.664-1.696 0.576c-32.128 7.36-54.144 33.824-54.144 65.408 0 19.712 7.36 37.184 20.32 47.36l1.696 1.12-1.152 1.696c-15.2 34.944-32.128 74.4-56.352 111.04l-2.24 2.816-2.272-2.816A714.464 714.464 0 0 1 487.648 139.84l-0.576-1.696 1.696-1.12a703.52 703.52 0 0 1 174.208-75.52l1.696 1.12z m130.784 280.736a30.08 30.08 0 0 1-29.888 29.888 30.08 30.08 0 0 1-29.888-29.888 30.08 30.08 0 0 1 29.888-29.888 30.08 30.08 0 0 1 29.888 29.888z m-222.688 336.544l-1.12-1.696 1.696-1.664c28.736-27.072 58.624-59.776 90.752-100.352l1.696-2.24 2.24 2.24c45.664 42.848 89.664 76.672 135.872 102.592l6.784 3.936-7.36 1.696c-49.024 9.6-100.32 14.08-155.584 14.08-11.84 0-23.68-0.544-35.52-1.12a700.896 700.896 0 0 0-34.944-1.12h-2.816v-3.36c0.576-4.512 0.576-9.024-1.696-12.992zM481.44 37.76l1.696-0.544c7.328-2.24 16.896-2.24 24.224-2.24 25.92 0 52.448 2.24 78.4 6.72l9.568 1.728-17.472 7.328c-29.312 12.96-60.32 25.92-89.664 40.576l-3.36 1.696-0.576-3.936c-2.816-16.352-2.816-33.28-2.816-49.056v-2.24z m-31.008 128.544l0.576 4.512a750.752 750.752 0 0 0 184.896 369.824l1.696 1.696-1.12 1.696c-23.104 31.552-50.176 61.984-84.576 96.96l-1.696 1.696-1.664-1.696c-11.296-9.024-24.256-13.536-40.608-13.536-29.312 0-54.112 17.472-63.136 45.12l-0.576 2.24-2.24-0.576c-99.2-24.8-187.744-60.864-263.264-108.224l-1.696-1.152 0.544-2.24c20.864-78.912 55.264-153.344 101.504-222.112l0.544-1.12h1.696c2.24 0 4.48 0.544 7.328 1.12 2.816 0.544 5.632 1.12 9.024 1.12 38.336 0 67.648-29.312 67.648-67.648 0-9.024-2.24-16.928-3.936-25.92l-0.576-2.848 1.12-1.12c25.92-25.92 53.568-49.6 87.36-74.976l1.152-2.816z m86.816 530.496a30.08 30.08 0 0 1-29.888 29.888 30.08 30.08 0 0 1-29.856-29.888 30.08 30.08 0 0 1 29.856-29.888c16.352-0.544 29.888 12.96 29.888 29.888zM266.656 273.984a30.08 30.08 0 0 1 29.888-29.888 30.08 30.08 0 0 1 29.856 29.888c0 16.32-12.96 29.888-29.856 29.888a30.08 30.08 0 0 1-29.888-29.888zM127.36 583.488c-10.688 59.2-16.32 111.616-16.32 158.976v21.984l-5.088-8.448c-45.12-74.976-68.8-155.04-71.04-238.464v-6.208l5.088 3.936c28.16 23.68 55.808 46.784 86.24 65.952L128 582.4l-0.576 1.12z m13.536-47.36l-1.12 3.936-3.392-2.24c-33.28-22.56-63.68-47.36-96.96-77.248l-1.12-1.12v-1.696c23.68-211.968 187.712-382.784 399.136-415.488l3.392-0.544v3.36c0 24.256 2.24 46.816 3.936 70.496l0.576 6.176-1.152 1.152a1012.832 1012.832 0 0 0-112.16 91.328l-1.696 1.664-1.152-2.24a66.208 66.208 0 0 0-33.824-9.024c-38.336 0-67.648 29.312-67.648 67.648 0 13.536 4.512 26.496 15.808 42.848l1.12 1.696-1.12 1.696a674.464 674.464 0 0 0-102.624 217.6z m24.8 295.968l-1.12-0.576c-2.816-1.664-3.936-3.36-5.056-5.056a4.416 4.416 0 0 0-2.24-2.24l-1.152-0.576v-1.12c-2.24-25.376-4.512-51.872-4.512-80.064 0-46.24 4.512-90.784 14.08-131.936l1.152-3.936 3.36 1.696c86.816 50.752 178.144 87.36 271.744 107.68l2.24 0.544v3.392s0.576 1.12 1.696 1.696l2.24 2.24-2.784 1.696c-81.184 53.568-174.784 89.088-278.496 106.56h-1.152z m753.184-93.568a472.576 472.576 0 0 1-411.52 241.28c-110.496 0-215.36-38.336-302.176-111.04l-4.512-3.968 5.632-1.12a710.08 710.08 0 0 0 266.656-109.952l1.696-1.12 1.696 1.12c8.448 5.632 19.168 9.024 30.976 9.024 20.32 0 38.912-9.024 54.144-27.072l1.12-1.12h1.696c27.616 2.24 56.384 4.512 84.544 4.512 71.04 0 142.656-8.448 218.176-25.92h1.12l0.576 0.544 18.592 8.48c10.176 5.056 20.32 9.6 31.04 12.96l3.36 1.12-2.816 2.24z m40-98.112l-1.088 0.576c-28.192 12.384-55.808 21.984-85.696 28.16h-1.12l-1.152-0.544c-63.68-31.584-125.696-76.096-179.264-129.664l-1.696-1.696 1.12-1.696c27.648-42.848 49.6-89.056 65.984-124l0.544-1.696h9.024c38.336 0 67.648-29.312 67.648-67.648 0-25.92-14.656-49.056-38.336-60.32l-2.24-1.152 0.544-2.24c9.6-41.728 14.08-83.424 14.08-128.544v-6.208l4.544 3.968c105.408 90.752 165.76 221.536 165.76 359.104 0 42.272-6.24 84-18.624 131.904v1.696z" fill="#409EFF" p-id="3925"></path></svg>