<?xml version="1.0" standalone="no"?><!DOCTYPE svg PUBLIC "-//W3C//DTD SVG 1.1//EN" "http://www.w3.org/Graphics/SVG/1.1/DTD/svg11.dtd"><svg t="1566369236798" class="icon" viewBox="0 0 1194 1024" version="1.1" xmlns="http://www.w3.org/2000/svg" p-id="7633" xmlns:xlink="http://www.w3.org/1999/xlink" width="233.203125" height="200"><defs><style type="text/css"></style></defs><path d="M1045.333333 469.674667c27.477333 0 49.749333-20.821333 49.749334-46.506667 0-25.685333-22.272-46.592-49.749334-46.592H149.333333c-27.477333 0-49.749333 20.906667-49.749333 46.592 0 25.6 22.272 46.506667 49.749333 46.506667h896zM1035.178667 1024H159.488C71.509333 1024 0 957.098667 0 874.837333V149.162667C0 66.901333 71.509333 0 159.488 0h215.381333c29.781333 0 57.6 12.202667 76.629334 33.621333L546.133333 139.605333h498.261334c82.944 0 150.357333 63.146667 150.357333 140.629334v594.773333c0 82.090667-71.509333 148.992-159.488 148.992z" fill="#B6C2DA" p-id="7634"></path></svg>