<?xml version="1.0" standalone="no"?><!DOCTYPE svg PUBLIC "-//W3C//DTD SVG 1.1//EN" "http://www.w3.org/Graphics/SVG/1.1/DTD/svg11.dtd"><svg t="1564127153449" class="icon" viewBox="0 0 1450 1024" version="1.1" xmlns="http://www.w3.org/2000/svg" p-id="4035" xmlns:xlink="http://www.w3.org/1999/xlink" width="283.203125" height="200"><defs><style type="text/css"></style></defs><path d="M1439.058935 481.878237a37.375938 37.375938 0 0 1 0 29.354618 777.385371 777.385371 0 0 1-280.746199 346.879421 772.00938 772.00938 0 0 1-437.417937 134.911776 771.412048 771.412048 0 0 1-437.332605-134.826442A773.972043 773.972043 0 0 1 2.815995 511.147521a39.8506 39.8506 0 0 1 0-29.354617 777.385371 777.385371 0 0 1 280.746199-346.964755A772.00938 772.00938 0 0 1 720.894799 0.001707a771.412048 771.412048 0 0 1 437.332604 134.911775 773.972043 773.972043 0 0 1 280.831532 346.964755zM713.470811 744.789799c141.055765 0 255.999573-114.943808 255.999573-255.999574s-114.943808-255.999573-255.999573-255.999573-255.999573 114.943808-255.999573 255.999573 114.943808 255.999573 255.999573 255.999574z m0-434.345943c98.389169 0 178.346369 79.9572 178.346369 178.346369 0 98.389169-79.9572 178.346369-178.346369 178.34637a178.602369 178.602369 0 0 1-178.34637-178.34637c0-98.389169 79.9572-178.346369 178.34637-178.346369z" fill="#409EFF" p-id="4036"></path></svg>