<?xml version="1.0" standalone="no"?><!DOCTYPE svg PUBLIC "-//W3C//DTD SVG 1.1//EN" "http://www.w3.org/Graphics/SVG/1.1/DTD/svg11.dtd"><svg t="1564371468332" class="icon" viewBox="0 0 1117 1024" version="1.1" xmlns="http://www.w3.org/2000/svg" p-id="3533" xmlns:xlink="http://www.w3.org/1999/xlink" width="218.1640625" height="200"><defs><style type="text/css"></style></defs><path d="M1117.090909 46.545455c0 24.529455-22.155636 46.545455-49.524364 46.545454H49.524364C22.155636 93.090909 0 71.074909 0 46.545455s22.155636-46.545455 49.524364-46.545455h1018.042181C1094.935273 0 1117.090909 22.016 1117.090909 46.545455z m0 465.454545c0 24.529455-22.155636 46.545455-49.524364 46.545455H49.524364C22.155636 558.545455 0 536.529455 0 512s22.155636-46.545455 49.524364-46.545455h1018.042181c27.368727 0 49.524364 22.016 49.524364 46.545455z m0 465.454545c0 24.529455-22.155636 46.545455-49.524364 46.545455H49.524364C22.155636 1024 0 1001.984 0 977.454545s22.155636-46.545455 49.524364-46.545454h1018.042181c27.368727 0 49.524364 22.016 49.524364 46.545454z" fill="#B6C2DA" p-id="3534"></path></svg>