<?xml version="1.0" standalone="no"?><!DOCTYPE svg PUBLIC "-//W3C//DTD SVG 1.1//EN" "http://www.w3.org/Graphics/SVG/1.1/DTD/svg11.dtd"><svg t="1566355159407" class="icon" viewBox="0 0 1024 1024" version="1.1" xmlns="http://www.w3.org/2000/svg" p-id="4075" xmlns:xlink="http://www.w3.org/1999/xlink" width="200" height="200"><defs><style type="text/css"></style></defs><path d="M479.834353 984.907294C232.990118 984.907294 30.117647 778.902588 30.117647 528.323765c0-134.324706 52.826353-259.614118 149.865412-349.06353 17.528471-17.829647 52.826353-17.829647 61.680941 0 17.588706 17.829647 17.588706 44.815059-8.854588 62.644706-70.535529 71.68-114.567529 179.139765-114.56753 286.418824 0 206.004706 158.72 367.073882 361.592471 367.073882 202.812235 0 361.532235-170.104471 361.532235-367.073882a369.965176 369.965176 0 0 0-123.422117-277.564236 43.851294 43.851294 0 0 1 0-62.644705 42.285176 42.285176 0 0 1 61.741176 0c96.978824 89.630118 158.659765 214.919529 158.659765 349.244235-8.854588 241.724235-211.546353 447.548235-458.511059 447.548235z m0-501.398588c-26.503529 0-44.152471-17.829647-44.152471-44.815059V98.605176c0-26.804706 17.528471-44.815059 44.152471-44.815058 26.383059 0 44.092235 17.829647 44.092235 44.815058v340.269177c0 26.804706-17.709176 44.634353-44.092235 44.634353z" fill="#409EFF" p-id="4076"></path></svg>