<?xml version="1.0" standalone="no"?><!DOCTYPE svg PUBLIC "-//W3C//DTD SVG 1.1//EN" "http://www.w3.org/Graphics/SVG/1.1/DTD/svg11.dtd"><svg t="1564108651601" class="icon" viewBox="0 0 1024 1024" version="1.1" xmlns="http://www.w3.org/2000/svg" p-id="3587" xmlns:xlink="http://www.w3.org/1999/xlink" width="200" height="200"><defs><style type="text/css"></style></defs><path d="M329.116953 0H146.340569A146.724553 146.724553 0 0 0 0 146.297904v182.819049a146.724553 146.724553 0 0 0 146.297904 146.297905h329.116954V146.297904A146.724553 146.724553 0 0 0 329.116953 0z m548.542478 0h-182.819049a146.724553 146.724553 0 0 0-146.297905 146.297904v329.116954h329.116954A146.724553 146.724553 0 0 0 1023.957335 329.116953V146.340569A146.724553 146.724553 0 0 0 877.659431 0zM0 694.840382v182.819049A146.724553 146.724553 0 0 0 146.297904 1023.957335h182.819049a146.724553 146.724553 0 0 0 146.297905-146.297904v-329.116954H146.297904A146.724553 146.724553 0 0 0 0 694.840382z m877.659431-146.297905h-329.116954v329.116954A146.724553 146.724553 0 0 0 694.840382 1023.957335h182.819049A146.724553 146.724553 0 0 0 1023.957335 877.659431v-182.819049a146.724553 146.724553 0 0 0-146.297904-146.297905z" fill="#AEBBC2" p-id="3588"></path><path d="M420.547811 420.547811H146.340569c-51.197867 0-91.430857-40.23299-91.430857-91.430858V146.340569c0-51.197867 40.23299-91.430857 91.430857-91.430857h182.819049c51.197867 0 91.430857 40.23299 91.430857 91.430857v274.249906z m548.542477-91.430858c0 51.197867-40.23299 91.430857-91.430857 91.430858h-274.249906V146.340569c0-51.197867 40.23299-91.430857 91.430857-91.430857h182.819049c51.197867 0 91.430857 40.23299 91.430857 91.430857v182.819049zM420.547811 877.659431c0 51.197867-40.23299 91.430857-91.430858 91.430857H146.340569c-51.197867 0-91.430857-40.23299-91.430857-91.430857v-182.819049c0-51.197867 40.23299-91.430857 91.430857-91.430857h274.249906v274.249906z m548.542477 0c0 51.197867-40.23299 91.430857-91.430857 91.430857h-182.819049c-51.197867 0-91.430857-40.23299-91.430857-91.430857v-274.249906h274.249906c51.197867 0 91.430857 40.23299 91.430857 91.430857v182.819049z" fill="#F6F6F6" p-id="3589"></path></svg>