<?xml version="1.0" standalone="no"?><!DOCTYPE svg PUBLIC "-//W3C//DTD SVG 1.1//EN" "http://www.w3.org/Graphics/SVG/1.1/DTD/svg11.dtd"><svg t="1564132094567" class="icon" viewBox="0 0 1024 1024" version="1.1" xmlns="http://www.w3.org/2000/svg" p-id="4369" xmlns:xlink="http://www.w3.org/1999/xlink" width="200" height="200"><defs><style type="text/css"></style></defs><path d="M512 1024c-281.728 0-512-230.272-512-512s230.272-512 512-512 512 230.272 512 512-230.272 512-512 512z m0-73.408c241.472 0 438.592-197.12 438.592-438.592 0-241.472-197.12-438.592-438.592-438.592-241.472 0-438.592 197.12-438.592 438.592 0 241.472 197.12 438.592 438.592 438.592zM767.68 512c0 21.888-14.72 36.672-36.672 36.672H292.416c-21.888 0-36.736-14.72-36.736-36.672 0-21.888 14.848-36.672 36.736-36.672h438.592c22.464 0 36.672 14.72 36.672 36.672z" fill="#409EFF" p-id="4370"></path></svg>